<svg width="24" height="24" viewBox="0 0 24 24" fill="none" xmlns="http://www.w3.org/2000/svg">
<path fill-rule="evenodd" clip-rule="evenodd" d="M12 2C10.9583 1.99979 9.93878 2.28654 9.06433 2.82568C8.18988 3.36482 7.49783 4.13333 7.0716 5.03857C7.01097 5.16835 6.94886 5.2975 6.8853 5.426L6.8673 5.42686C6.8097 5.42857 6.7314 5.42857 6.6 5.42857C5.64522 5.42857 4.72955 5.78979 4.05442 6.43278C3.37928 7.07576 3 7.94783 3 8.85714C3 9.76646 3.37928 10.6385 4.05442 11.2815C4.72955 11.9245 5.64522 12.2857 6.6 12.2857H6.7548L8.5548 10.5714H6.6C6.12261 10.5714 5.66477 10.3908 5.32721 10.0693C4.98964 9.74784 4.8 9.3118 4.8 8.85714C4.8 8.40249 4.98964 7.96645 5.32721 7.64496C5.66477 7.32347 6.12261 7.14286 6.6 7.14286H6.6576C6.8448 7.14286 7.0626 7.14371 7.2426 7.10857C7.46666 7.07208 7.68084 6.9934 7.8726 6.87714C8.0895 6.74343 8.2389 6.57714 8.3523 6.42543C8.42178 6.3277 8.48231 6.22447 8.5332 6.11686C8.5812 6.02143 8.64 5.89914 8.7096 5.75L8.7132 5.74143C8.99708 5.13728 9.45846 4.62428 10.0417 4.26431C10.6249 3.90435 11.305 3.71282 12 3.71282C12.695 3.71282 13.3751 3.90435 13.9583 4.26431C14.5415 4.62428 15.0029 5.13728 15.2868 5.74143L15.2913 5.75C15.3603 5.89857 15.4188 6.02086 15.4668 6.11686C15.5082 6.2 15.5694 6.32086 15.6477 6.42543C15.7611 6.57629 15.9096 6.74343 16.1274 6.878C16.3452 7.01171 16.5657 7.07257 16.7574 7.10943C16.9374 7.14371 17.1552 7.14371 17.3424 7.14371L17.4 7.14286C17.8774 7.14286 18.3352 7.32347 18.6728 7.64496C19.0104 7.96645 19.2 8.40249 19.2 8.85714C19.2 9.3118 19.0104 9.74784 18.6728 10.0693C18.3352 10.3908 17.8774 10.5714 17.4 10.5714H15.4452L17.2452 12.2857H17.4C18.3548 12.2857 19.2705 11.9245 19.9456 11.2815C20.6207 10.6385 21 9.76646 21 8.85714C21 7.94783 20.6207 7.07576 19.9456 6.43278C19.2705 5.78979 18.3548 5.42857 17.4 5.42857C17.2686 5.42857 17.1903 5.42857 17.1327 5.42686H17.1147L17.0922 5.38143C17.0365 5.26762 16.9819 5.15333 16.9284 5.03857C16.5022 4.13333 15.8101 3.36482 14.9357 2.82568C14.0612 2.28654 13.0417 1.99979 12 2Z" fill="black"/>
<path d="M11.9994 13.4981L11.3934 12.8921L11.9994 12.2861L12.6054 12.8921L11.9994 13.4981ZM12.8566 21.2124C12.8566 21.4397 12.7663 21.6578 12.6055 21.8185C12.4448 21.9793 12.2267 22.0696 11.9994 22.0696C11.7721 22.0696 11.5541 21.9793 11.3933 21.8185C11.2326 21.6578 11.1423 21.4397 11.1423 21.2124H12.8566ZM7.96484 16.3207L11.3934 12.8921L12.6054 14.1041L9.17684 17.5327L7.96484 16.3207ZM12.6054 12.8921L16.034 16.3207L14.822 17.5327L11.3934 14.1041L12.6054 12.8921ZM12.8566 13.4981V21.2124H11.1423V13.4981H12.8566Z" fill="black"/>
</svg>
