<svg width="25" height="24" viewBox="0 0 25 24" fill="none" xmlns="http://www.w3.org/2000/svg">
<rect x="1.33203" y="0.5" width="23" height="23" rx="11.5" stroke="black" stroke-opacity="0.101961"/>
<path d="M7.54792 17.4689C7.12814 17.4689 6.77042 17.3211 6.47475 17.0254C6.17908 16.7297 6.03125 16.372 6.03125 15.9522V8.04792C6.03125 7.62814 6.17908 7.27042 6.47475 6.97475C6.77042 6.67908 7.12814 6.53125 7.54792 6.53125H11.4403L12.8334 7.92442H18.1189C18.5387 7.92442 18.8964 8.07225 19.1921 8.36792C19.4878 8.66347 19.6356 9.02119 19.6356 9.44108V15.9522C19.6356 16.372 19.4878 16.7297 19.1921 17.0254C18.8964 17.3211 18.5387 17.4689 18.1189 17.4689H7.54792Z" fill="black"/>
</svg>
