<svg width="18" height="18" viewBox="0 0 18 18" fill="none" xmlns="http://www.w3.org/2000/svg">
<g clip-path="url(#clip0_1476_4035)">
<path opacity="0.1" fill-rule="evenodd" clip-rule="evenodd" d="M9 3C7.4087 3 5.88258 3.63214 4.75736 4.75736C3.63214 5.88258 3 7.4087 3 9C3 10.5913 3.63214 12.1174 4.75736 13.2426C5.88258 14.3679 7.4087 15 9 15C10.5913 15 12.1174 14.3679 13.2426 13.2426C14.3679 12.1174 15 10.5913 15 9C15 7.4087 14.3679 5.88258 13.2426 4.75736C12.1174 3.63214 10.5913 3 9 3ZM1.5 9C1.5 4.85775 4.85775 1.5 9 1.5C13.1423 1.5 16.5 4.85775 16.5 9C16.5 13.1423 13.1423 16.5 9 16.5C4.85775 16.5 1.5 13.1423 1.5 9Z" fill="black"/>
<path fill-rule="evenodd" clip-rule="evenodd" d="M8.99693 3.00001C7.45001 2.9969 5.96228 3.59436 4.84718 4.66651C4.77607 4.73467 4.69223 4.78815 4.60045 4.8239C4.50867 4.85966 4.41075 4.87699 4.31227 4.8749C4.21379 4.87281 4.11669 4.85134 4.02651 4.81173C3.93633 4.77211 3.85484 4.71512 3.78668 4.64401C3.71852 4.5729 3.66504 4.48906 3.62929 4.39728C3.59353 4.3055 3.5762 4.20758 3.57829 4.1091C3.58038 4.01062 3.60185 3.91352 3.64146 3.82334C3.68108 3.73316 3.73807 3.65167 3.80918 3.58351C5.20357 2.24372 7.06319 1.49686 8.99693 1.50001C9.19584 1.50001 9.38661 1.57903 9.52726 1.71968C9.66791 1.86033 9.74693 2.0511 9.74693 2.25001C9.74693 2.44892 9.66791 2.63969 9.52726 2.78034C9.38661 2.92099 9.19584 3.00001 8.99693 3.00001Z" fill="black"/>
</g>
<defs>
<clipPath id="clip0_1476_4035">
<rect width="18" height="18" fill="white"/>
</clipPath>
</defs>
</svg>
