<svg width="24" height="24" viewBox="0 0 24 24" fill="none" xmlns="http://www.w3.org/2000/svg">
<path d="M8.33333 19C7.96667 19 7.65278 18.8694 7.39167 18.6083C7.13056 18.3472 7 18.0333 7 17.6667V11C7 10.6333 7.13056 10.3194 7.39167 10.0583C7.65278 9.79722 7.96667 9.66667 8.33333 9.66667H9V8.33333C9 7.41111 9.325 6.625 9.975 5.975C10.625 5.325 11.4111 5 12.3333 5C13.2556 5 14.0417 5.325 14.6917 5.975C15.3417 6.625 15.6667 7.41111 15.6667 8.33333V9.66667H16.3333C16.7 9.66667 17.0139 9.79722 17.275 10.0583C17.5361 10.3194 17.6667 10.6333 17.6667 11V17.6667C17.6667 18.0333 17.5361 18.3472 17.275 18.6083C17.0139 18.8694 16.7 19 16.3333 19H8.33333ZM12.3333 15.6667C12.7 15.6667 13.0139 15.5361 13.275 15.275C13.5361 15.0139 13.6667 14.7 13.6667 14.3333C13.6667 13.9667 13.5361 13.6528 13.275 13.3917C13.0139 13.1306 12.7 13 12.3333 13C11.9667 13 11.6528 13.1306 11.3917 13.3917C11.1306 13.6528 11 13.9667 11 14.3333C11 14.7 11.1306 15.0139 11.3917 15.275C11.6528 15.5361 11.9667 15.6667 12.3333 15.6667ZM10.3333 9.66667H14.3333V8.33333C14.3333 7.77778 14.1389 7.30556 13.75 6.91667C13.3611 6.52778 12.8889 6.33333 12.3333 6.33333C11.7778 6.33333 11.3056 6.52778 10.9167 6.91667C10.5278 7.30556 10.3333 7.77778 10.3333 8.33333V9.66667Z" fill="#5F6368"/>
</svg>
