<svg width="25" height="24" viewBox="0 0 25 24" fill="none" xmlns="http://www.w3.org/2000/svg">
<rect x="1.33203" y="0.5" width="23" height="23" rx="11.5" stroke="black" stroke-opacity="0.101961"/>
<path d="M12.3125 7.04798C12.3473 6.93748 12.4165 6.84096 12.5099 6.77244C12.6033 6.70393 12.7162 6.66699 12.832 6.66699C12.9479 6.66699 13.0607 6.70393 13.1542 6.77244C13.2476 6.84096 13.3167 6.93748 13.3516 7.04798C14.0319 10.8672 14.6318 11.4671 18.451 12.1474C18.5616 12.1823 18.6581 12.2514 18.7266 12.3449C18.7951 12.4383 18.832 12.5511 18.832 12.667C18.832 12.7829 18.7951 12.8957 18.7266 12.9891C18.6581 13.0826 18.5616 13.1517 18.451 13.1865C14.6318 13.8669 14.0319 14.4668 13.3516 18.286C13.3167 18.3965 13.2476 18.493 13.1542 18.5615C13.0607 18.6301 12.9479 18.667 12.832 18.667C12.7162 18.667 12.6033 18.6301 12.5099 18.5615C12.4165 18.493 12.3473 18.3965 12.3125 18.286C11.6322 14.4668 11.0322 13.8669 7.21301 13.1865C7.10251 13.1517 7.006 13.0826 6.93748 12.9891C6.86897 12.8957 6.83203 12.7829 6.83203 12.667C6.83203 12.5511 6.86897 12.4383 6.93748 12.3449C7.006 12.2514 7.10251 12.1823 7.21301 12.1474C11.0322 11.4671 11.6322 10.8672 12.3125 7.04798Z" fill="black"/>
<path d="M16.5998 5.50233C16.6153 5.45322 16.646 5.41033 16.6876 5.37988C16.7291 5.34943 16.7792 5.33301 16.8307 5.33301C16.8822 5.33301 16.9324 5.34943 16.9739 5.37988C17.0154 5.41033 17.0462 5.45322 17.0616 5.50233C17.364 7.19976 17.6306 7.4664 19.3281 7.76877C19.3772 7.78425 19.4201 7.81498 19.4505 7.8565C19.481 7.89803 19.4974 7.94818 19.4974 7.99967C19.4974 8.05117 19.481 8.10132 19.4505 8.14284C19.4201 8.18437 19.3772 8.2151 19.3281 8.23058C17.6306 8.53295 17.364 8.79959 17.0616 10.497C17.0462 10.5461 17.0154 10.589 16.9739 10.6195C16.9324 10.6499 16.8822 10.6663 16.8307 10.6663C16.7792 10.6663 16.7291 10.6499 16.6876 10.6195C16.646 10.589 16.6153 10.5461 16.5998 10.497C16.2975 8.79959 16.0308 8.53295 14.3334 8.23058C14.2843 8.2151 14.2414 8.18437 14.2109 8.14284C14.1805 8.10132 14.1641 8.05117 14.1641 7.99967C14.1641 7.94818 14.1805 7.89803 14.2109 7.8565C14.2414 7.81498 14.2843 7.78425 14.3334 7.76877C16.0308 7.4664 16.2975 7.19976 16.5998 5.50233Z" fill="black"/>
</svg>
