<svg width="156" height="157" viewBox="0 0 156 157" fill="none" xmlns="http://www.w3.org/2000/svg">
<g filter="url(#filter0_d_654_13797)">
<path d="M119.939 26.5H37.3043C34.651 26.5 32.5 28.651 32.5 31.3043V132.196C32.5 134.849 34.651 137 37.3043 137H119.939C122.593 137 124.743 134.849 124.743 132.196V31.3043C124.743 28.651 122.593 26.5 119.939 26.5Z" fill="#7C7F83"/>
</g>
<path d="M69.0293 40.9131H44.0467C42.4547 40.9131 41.1641 42.2037 41.1641 43.7957C41.1641 45.3877 42.4547 46.6783 44.0467 46.6783H69.0293C70.6213 46.6783 71.9119 45.3877 71.9119 43.7957C71.9119 42.2037 70.6213 40.9131 69.0293 40.9131Z" fill="white"/>
<path d="M86.3249 53.4072H44.0467C42.4547 53.4072 41.1641 54.6978 41.1641 56.2898C41.1641 57.8819 42.4547 59.1724 44.0467 59.1724H86.3249C87.917 59.1724 89.2075 57.8819 89.2075 56.2898C89.2075 54.6978 87.917 53.4072 86.3249 53.4072Z" fill="white"/>
<path d="M69.0293 66.8457H44.0467C42.4547 66.8457 41.1641 68.1363 41.1641 69.7283C41.1641 71.3203 42.4547 72.6109 44.0467 72.6109H69.0293C70.6213 72.6109 71.9119 71.3203 71.9119 69.7283C71.9119 68.1363 70.6213 66.8457 69.0293 66.8457Z" fill="white"/>
<path d="M86.3249 79.3398H44.0467C42.4547 79.3398 41.1641 80.6304 41.1641 82.2225C41.1641 83.8145 42.4547 85.1051 44.0467 85.1051H86.3249C87.917 85.1051 89.2075 83.8145 89.2075 82.2225C89.2075 80.6304 87.917 79.3398 86.3249 79.3398Z" fill="white"/>
<path d="M69.0293 92.7959H44.0467C42.4547 92.7959 41.1641 94.0865 41.1641 95.6785C41.1641 97.2705 42.4547 98.5611 44.0467 98.5611H69.0293C70.6213 98.5611 71.9119 97.2705 71.9119 95.6785C71.9119 94.0865 70.6213 92.7959 69.0293 92.7959Z" fill="white"/>
<path d="M86.3249 105.29H44.0467C42.4547 105.29 41.1641 106.581 41.1641 108.173C41.1641 109.765 42.4547 111.055 44.0467 111.055H86.3249C87.917 111.055 89.2075 109.765 89.2075 108.173C89.2075 106.581 87.917 105.29 86.3249 105.29Z" fill="white"/>
<defs>
<filter id="filter0_d_654_13797" x="26.5" y="17.5" width="104.242" height="122.5" filterUnits="userSpaceOnUse" color-interpolation-filters="sRGB">
<feFlood flood-opacity="0" result="BackgroundImageFix"/>
<feColorMatrix in="SourceAlpha" type="matrix" values="0 0 0 0 0 0 0 0 0 0 0 0 0 0 0 0 0 0 127 0" result="hardAlpha"/>
<feOffset dy="-3"/>
<feGaussianBlur stdDeviation="3"/>
<feColorMatrix type="matrix" values="0 0 0 0 0.788235 0 0 0 0 0.803922 0 0 0 0 0.85098 0 0 0 0.349 0"/>
<feBlend mode="normal" in2="BackgroundImageFix" result="effect1_dropShadow_654_13797"/>
<feBlend mode="normal" in="SourceGraphic" in2="effect1_dropShadow_654_13797" result="shape"/>
</filter>
</defs>
</svg>
