<svg width="25" height="24" viewBox="0 0 25 24" fill="none" xmlns="http://www.w3.org/2000/svg">
<rect x="1.33203" y="0.5" width="23" height="23" rx="11.5" stroke="black" stroke-opacity="0.101961"/>
<path d="M11.3702 18.5319L11.1171 16.5263C11.0036 16.4825 10.896 16.4297 10.7941 16.3677C10.6924 16.3059 10.5925 16.2402 10.4946 16.1706L8.63092 16.9565L6.83203 13.8413L8.44269 12.6217C8.43491 12.5598 8.43102 12.5006 8.43102 12.4439V12.088C8.43102 12.0313 8.43491 11.972 8.44269 11.9102L6.83203 10.6906L8.63092 7.58272L10.502 8.36494C10.5999 8.29534 10.7005 8.2302 10.8036 8.1695C10.9069 8.10891 11.0114 8.05671 11.1171 8.0129L11.3702 6H14.9606L15.2136 8.0129C15.3271 8.05671 15.4348 8.10891 15.5366 8.1695C15.6383 8.2302 15.7382 8.29534 15.8361 8.36494L17.6998 7.58272L19.4987 10.6906L17.8844 11.9102C17.8921 11.972 17.896 12.0313 17.896 12.088V12.2659C17.896 12.3278 17.8954 12.3871 17.8942 12.4439C17.893 12.5006 17.8846 12.5598 17.869 12.6217L19.4833 13.8413L17.6808 16.9565L15.8288 16.1706C15.7308 16.2402 15.6303 16.3059 15.5271 16.3677C15.4238 16.4297 15.3193 16.4825 15.2136 16.5263L14.9606 18.5319H11.3702ZM13.185 14.4153C13.7787 14.4153 14.2853 14.2055 14.7049 13.7859C15.1246 13.3662 15.3344 12.8596 15.3344 12.2659C15.3344 11.6723 15.1246 11.1657 14.7049 10.746C14.2853 10.3264 13.7787 10.1165 13.185 10.1165C12.5836 10.1165 12.075 10.3264 11.6593 10.746C11.2435 11.1657 11.0356 11.6723 11.0356 12.2659C11.0356 12.8596 11.2435 13.3662 11.6593 13.7859C12.075 14.2055 12.5836 14.4153 13.185 14.4153Z" fill="black"/>
</svg>
