<svg width="24" height="24" viewBox="0 0 24 24" fill="none" xmlns="http://www.w3.org/2000/svg">
<path d="M11.2207 4.57148C11.2729 4.40573 11.3767 4.26095 11.5168 4.15818C11.6569 4.05541 11.8262 4 12 4C12.1738 4 12.3431 4.05541 12.4832 4.15818C12.6233 4.26095 12.7271 4.40573 12.7793 4.57148C13.7998 10.3003 14.6997 11.2002 20.4285 12.2207C20.5943 12.2729 20.739 12.3767 20.8418 12.5168C20.9446 12.6569 21 12.8262 21 13C21 13.1738 20.9446 13.3431 20.8418 13.4832C20.739 13.6233 20.5943 13.7271 20.4285 13.7793C14.6997 14.7998 13.7998 15.6997 12.7793 21.4285C12.7271 21.5943 12.6233 21.7391 12.4832 21.8418C12.3431 21.9446 12.1738 22 12 22C11.8262 22 11.6569 21.9446 11.5168 21.8418C11.3767 21.7391 11.2729 21.5943 11.2207 21.4285C10.2002 15.6997 9.30028 14.7998 3.57148 13.7793C3.40572 13.7271 3.26095 13.6233 3.15818 13.4832C3.05541 13.3431 3 13.1738 3 13C3 12.8262 3.05541 12.6569 3.15818 12.5168C3.26095 12.3767 3.40572 12.2729 3.57148 12.2207C9.30028 11.2002 10.2002 10.3003 11.2207 4.57148Z" fill="#059FFF"/>
<path d="M17.6536 2.25399C17.6769 2.18032 17.723 2.11598 17.7852 2.0703C17.8475 2.02463 17.9228 2 18 2C18.0772 2 18.1525 2.02463 18.2148 2.0703C18.277 2.11598 18.3231 2.18032 18.3464 2.25399C18.7999 4.80012 19.1999 5.20008 21.746 5.65364C21.8197 5.67686 21.884 5.72296 21.9297 5.78525C21.9754 5.84753 22 5.92276 22 6C22 6.07724 21.9754 6.15247 21.9297 6.21476C21.884 6.27704 21.8197 6.32314 21.746 6.34636C19.1999 6.79992 18.7999 7.19987 18.3464 9.74601C18.3231 9.81968 18.277 9.88402 18.2148 9.9297C18.1525 9.97537 18.0772 10 18 10C17.9228 10 17.8475 9.97537 17.7852 9.9297C17.723 9.88402 17.6769 9.81968 17.6536 9.74601C17.2001 7.19987 16.8001 6.79992 14.254 6.34636C14.1803 6.32314 14.116 6.27704 14.0703 6.21476C14.0246 6.15247 14 6.07724 14 6C14 5.92276 14.0246 5.84753 14.0703 5.78525C14.116 5.72296 14.1803 5.67686 14.254 5.65364C16.8001 5.20008 17.2001 4.80012 17.6536 2.25399Z" fill="#059FFF"/>
</svg>
