<svg width="24" height="24" viewBox="0 0 24 24" fill="none" xmlns="http://www.w3.org/2000/svg">
<path d="M10.7945 16.075C11.1847 16.4636 11.8156 16.4636 12.2058 16.075L14.2646 14.0247C14.5845 13.7061 15.1019 13.7067 15.4211 14.0259C15.7408 14.3456 15.7408 14.864 15.4211 15.1837L12.2072 18.3977C11.8167 18.7882 11.1835 18.7882 10.793 18.3977L7.57908 15.1837C7.25939 14.864 7.25939 14.3456 7.57909 14.0259C7.89833 13.7067 8.41574 13.7061 8.73564 14.0247L10.7945 16.075Z" fill="#5F6368"/>
<path d="M12.2055 7.02944C11.8153 6.64087 11.1844 6.64087 10.7942 7.02944L8.73542 9.07977C8.41552 9.39834 7.8981 9.39781 7.57886 9.07857C7.25916 8.75887 7.25916 8.24054 7.57885 7.92083L10.7928 4.70679C11.1833 4.31624 11.8165 4.31625 12.207 4.70679L15.4209 7.92083C15.7406 8.24054 15.7406 8.75887 15.4209 9.07857C15.1017 9.39781 14.5843 9.39834 14.2644 9.07977L12.2055 7.02944Z" fill="#5F6368"/>
</svg>
