<svg width="18" height="18" viewBox="0 0 18 18" fill="none" xmlns="http://www.w3.org/2000/svg">
<path d="M7.93659 12.5397L13.2914 7.18509L12.1203 6.00947L7.93659 10.1932L5.85291 8.10947L4.68197 9.28509L7.93659 12.5397ZM9.00009 16.6525C7.93872 16.6525 6.94284 16.4518 6.01247 16.0503C5.08197 15.6488 4.27259 15.104 3.58434 14.4158C2.89622 13.7276 2.35141 12.9182 1.94991 11.9877C1.54841 11.0573 1.34766 10.0615 1.34766 9.00009C1.34766 7.93872 1.54841 6.94284 1.94991 6.01247C2.35141 5.08197 2.89622 4.27259 3.58434 3.58434C4.27259 2.89622 5.08197 2.35141 6.01247 1.94991C6.94284 1.54841 7.93872 1.34766 9.00009 1.34766C10.0615 1.34766 11.0573 1.54841 11.9877 1.94991C12.9182 2.35141 13.7276 2.89622 14.4158 3.58434C15.104 4.27259 15.6488 5.08197 16.0503 6.01247C16.4518 6.94284 16.6525 7.93872 16.6525 9.00009C16.6525 10.0615 16.4518 11.0573 16.0503 11.9877C15.6488 12.9182 15.104 13.7276 14.4158 14.4158C13.7276 15.104 12.9182 15.6488 11.9877 16.0503C11.0573 16.4518 10.0615 16.6525 9.00009 16.6525Z" fill="black"/>
</svg>
