<svg width="96" height="96" viewBox="0 0 96 96" fill="none" xmlns="http://www.w3.org/2000/svg">
<rect x="0.5" y="0.5" width="95" height="95" rx="7.5" stroke="black" stroke-opacity="0.101961"/>
<g clip-path="url(#clip0_1035_3731)">
<mask id="mask0_1035_3731" style="mask-type:luminance" maskUnits="userSpaceOnUse" x="-10" y="-10" width="116" height="116">
<path d="M-9.60547 -9.70024H105.68V105.585H-9.60547V-9.70024Z" fill="white"/>
</mask>
<g mask="url(#mask0_1035_3731)">
<path d="M67.6523 47.8816C67.6523 49.1025 68.6451 50.0957 69.8675 50.0957C71.0871 50.0957 72.0802 49.1025 72.0802 47.8816C72.0802 46.6604 71.0871 45.6674 69.8675 45.6674C68.6451 45.6674 67.6523 46.6604 67.6523 47.8816Z" fill="white"/>
<path fill-rule="evenodd" clip-rule="evenodd" d="M47.9999 87.8467C70.0071 87.8467 87.8473 70.0065 87.8473 47.9991C87.8473 25.992 70.0071 8.1517 47.9999 8.1517C25.9927 8.1517 8.15234 25.992 8.15234 47.9991C8.15234 70.0065 25.9927 87.8467 47.9999 87.8467ZM27.2272 47.884L34.0275 41.0669C34.253 40.8371 34.3788 40.5329 34.3788 40.2103C34.3788 39.5379 33.8322 38.9918 33.1598 38.9918C32.8322 38.9918 32.5252 39.1202 32.2936 39.3546C32.293 39.3559 25.4994 46.1455 25.4994 46.1455L18.6749 39.3444C18.4443 39.1171 18.1387 38.9918 17.8147 38.9918C17.1431 38.9918 16.5964 39.5376 16.5964 40.2093C16.5964 40.537 16.7272 40.8444 16.962 41.0761L23.7613 47.8745L16.9655 54.6831C16.7266 54.9183 16.5964 55.2265 16.5964 55.5556C16.5964 56.2279 17.1431 56.7733 17.8147 56.7733C18.1392 56.7733 18.4451 56.6473 18.6749 56.4174L25.4889 49.6126L32.277 56.3926C32.5177 56.6415 32.8283 56.7741 33.1598 56.7741C33.8315 56.7741 34.3781 56.2279 34.3781 55.5556C34.3781 55.2312 34.2524 54.9264 34.0237 54.6967L27.2272 47.884ZM69.8668 41.4709C66.3308 41.4709 63.4547 44.3477 63.4547 47.8832C63.4547 51.418 66.3308 54.2935 69.8668 54.2935C73.4011 54.2935 76.2779 51.418 76.2779 47.8832C76.2779 44.3477 73.4011 41.4709 69.8668 41.4709ZM69.8668 56.8164C64.9403 56.8164 60.9323 52.8089 60.9323 47.8832C60.9323 42.9569 64.9403 38.9483 69.8668 38.9483C74.7932 38.9483 78.8033 42.9569 78.8033 47.8832C78.8033 52.8089 74.7932 56.8164 69.8668 56.8164ZM60.2991 39.1002L59.9243 39.0991C58.7989 39.0991 57.7136 39.454 56.807 40.1526C56.6876 39.606 56.199 39.1947 55.617 39.1947C54.9472 39.1947 54.4105 39.7314 54.4089 40.4026L54.4129 55.4505C54.4147 56.1205 54.9612 56.665 55.6314 56.665C56.3015 56.665 56.8478 56.1205 56.8496 55.449L56.8501 46.1964C56.8501 43.1126 57.1321 41.8671 59.7738 41.537C60.0127 41.5073 60.2721 41.5112 60.2842 41.5114L60.2846 41.5114C61.0074 41.4866 61.5211 40.9899 61.5211 40.3185C61.5211 39.6468 60.9727 39.1002 60.2991 39.1002ZM36.9058 46.3378C36.9044 46.3629 36.9031 46.388 36.9031 46.4123H49.4427C48.7715 43.5645 46.2158 41.4443 43.1633 41.4443C40.1472 41.4443 37.6147 43.5136 36.9073 46.31C36.9068 46.3192 36.9063 46.3285 36.9058 46.3378ZM47.9794 40.3431C50.0518 41.6544 51.4128 43.6964 51.9378 46.1823C52.197 47.5896 51.2587 48.8202 49.5151 48.8568C49.5151 48.8568 37.5301 48.8589 36.7973 48.8589C36.7998 48.9174 36.8059 48.981 36.8141 49.0469C36.8775 49.3991 36.9683 49.7411 37.0861 50.0708C37.7607 51.8366 39.6571 54.3104 43.2011 54.3499C44.2839 54.3438 45.3024 54.0709 46.1962 53.5934C46.8986 53.2011 47.4847 52.6953 47.9572 52.1732C48.114 51.986 48.2565 51.7988 48.3842 51.6168C48.9784 50.8559 49.7335 50.9957 50.1833 51.3404C50.7167 51.749 50.8067 52.605 50.3213 53.2069C50.3072 53.2239 50.293 53.2381 50.2789 53.2542C49.5797 54.1312 48.8576 54.8638 47.9934 55.4194C47.1607 55.953 46.257 56.3317 45.3231 56.5589C44.2363 56.8404 43.1867 56.9029 42.1084 56.7723C38.4747 56.3275 35.4269 53.6437 34.5256 50.0984C34.3456 49.3856 34.2591 48.6614 34.2591 47.9439C34.2591 45.0827 35.6369 42.305 38.0237 40.6071C40.9497 38.5262 44.9501 38.4198 47.9794 40.3431Z" fill="#11B5EA"/>
</g>
</g>
<defs>
<clipPath id="clip0_1035_3731">
<rect width="80" height="80" fill="white" transform="translate(8 8)"/>
</clipPath>
</defs>
</svg>
